# xmcd
# 
# Track frame offsets:
#     150
#     15822
#     23903
#     33672
#     43841
#     55850
#     67363
#     79947
#     91166
#     96768
#     114529
#     122927
#     134297
# 
# Disc length: 1889
# 
# Revision: 1
# Processed by: cddbd v1.5.2PL0 Copyright (c) Steve Scherf et al.
# Submitted via: fre:ac v1.0.17
# 
DISCID=ae075f0d
DTITLE=Hildegard Knef - Meisterstücke * Live *
DYEAR=2001
DGENRE=
TTITLE0=Track01 Knef - Für mich soll`s rote Rosen regnen
TTITLE1=Track02 Knef - Jene irritierte Auster
TTITLE2=Track03 Knef - Berlin, dein Gesicht hat Sommersprossen
TTITLE3=Track04 Knef - Ich möchte am Montag mal Sonntag haben
TTITLE4=Track05 Knef - In dieser Stadt
TTITLE5=Track06 Knef - Er war nie ein Kavalier
TTITLE6=Track07 Knef - Der Apfelbaum
TTITLE7=Track08 Knef - Ich brauch kein Venedig
TTITLE8=Track09 Knef - Illusionen
TTITLE9=Track10 Knef - Die Herren dieser Welt
TTITLE10=Track11 Knef - Leg doch noch einmal den Arm um mich rum
TTITLE11=Track12 Knef - Ich brauch` Tapetenwechsel
TTITLE12=Track13 Knef - Medley  a.) Es war beim Bal pare'   b.) Aber schön war es doch
EXTD=YEAR: 2001 GENRE: Chanson
EXTT0=
EXTT1=
EXTT2=
EXTT3=
EXTT4=
EXTT5=
EXTT6=
EXTT7=
EXTT8=
EXTT9=
EXTT10=
EXTT11=
EXTT12=
PLAYORDER=
